<svg xmlns="http://www.w3.org/2000/svg" xmlns:xlink="http://www.w3.org/1999/xlink" width="800" zoomAndPan="magnify" viewBox="0 0 600 225" height="300" preserveAspectRatio="xMidYMid meet" version="1.0"><defs><g/></defs><g fill="#9747ff" fill-opacity="1"><g transform="translate(32.179686, 164.250003)"><g><path d="M 109.375 -102.21875 C 111.675781 -101.894531 113.257812 -101.195312 114.125 -100.125 C 114.988281 -99.0625 115.421875 -97.664062 115.421875 -95.9375 C 115.421875 -90.257812 112.378906 -87.628906 106.296875 -88.046875 L 101.984375 -88.421875 C 97.128906 -88.828125 92.296875 -89.148438 87.484375 -89.390625 C 82.679688 -89.640625 77.648438 -89.765625 72.390625 -89.765625 L 66.828125 -89.765625 C 65.847656 -77.597656 64.820312 -66.503906 63.75 -56.484375 L 84.96875 -56.84375 C 88.007812 -56.84375 90.039062 -56.304688 91.0625 -55.234375 C 92.09375 -54.171875 92.609375 -52.734375 92.609375 -50.921875 C 92.609375 -48.128906 91.785156 -45.929688 90.140625 -44.328125 C 88.492188 -42.722656 86.148438 -41.921875 83.109375 -41.921875 L 62.03125 -41.921875 L 61.28125 -36.625 C 59.5625 -23.0625 55.882812 -13.398438 50.25 -7.640625 C 44.613281 -1.890625 36.863281 0.984375 27 0.984375 C 21.414062 0.984375 16.28125 -0.222656 11.59375 -2.640625 C 6.90625 -5.066406 3.453125 -8.007812 1.234375 -11.46875 C 0.328125 -12.863281 -0.125 -14.550781 -0.125 -16.53125 C -0.125 -18.5 0.347656 -20.222656 1.296875 -21.703125 C 2.242188 -23.179688 3.414062 -23.921875 4.8125 -23.921875 C 5.789062 -23.921875 6.753906 -23.59375 7.703125 -22.9375 C 8.648438 -22.28125 9.863281 -21.003906 11.34375 -19.109375 C 15.289062 -13.929688 20.179688 -11.34375 26.015625 -11.34375 C 30.703125 -11.34375 34.628906 -13.253906 37.796875 -17.078125 C 40.960938 -20.898438 43 -26.921875 43.90625 -35.140625 L 44.640625 -41.921875 L 38.71875 -41.921875 C 36.832031 -41.921875 35.207031 -42.453125 33.84375 -43.515625 C 32.488281 -44.585938 31.8125 -46.113281 31.8125 -48.09375 C 31.8125 -50.644531 32.46875 -52.597656 33.78125 -53.953125 C 35.101562 -55.304688 37.035156 -55.984375 39.578125 -55.984375 C 41.878906 -55.984375 44.140625 -56.023438 46.359375 -56.109375 C 47.347656 -65.148438 48.421875 -76.125 49.578125 -89.03125 C 40.691406 -88.207031 34.441406 -86.769531 30.828125 -84.71875 C 27.210938 -82.664062 25.40625 -79.625 25.40625 -75.59375 C 25.40625 -72.789062 26.226562 -70.117188 27.875 -67.578125 C 28.363281 -66.835938 28.609375 -66.097656 28.609375 -65.359375 C 28.609375 -63.878906 27.785156 -62.582031 26.140625 -61.46875 C 24.492188 -60.363281 22.644531 -59.8125 20.59375 -59.8125 C 18.375 -59.8125 16.484375 -60.46875 14.921875 -61.78125 C 13.929688 -62.601562 12.984375 -64.285156 12.078125 -66.828125 C 11.179688 -69.378906 10.734375 -72.21875 10.734375 -75.34375 C 10.734375 -85.539062 15.972656 -92.941406 26.453125 -97.546875 C 36.929688 -102.148438 52.242188 -104.453125 72.390625 -104.453125 C 86.359375 -104.453125 98.6875 -103.707031 109.375 -102.21875 Z M 109.375 -102.21875 "/></g></g></g><g fill="#9747ff" fill-opacity="1"><g transform="translate(119.972643, 164.250003)"><g><path d="M 52.65625 -27.5 C 53.71875 -27.5 54.554688 -27.003906 55.171875 -26.015625 C 55.796875 -25.035156 56.109375 -23.679688 56.109375 -21.953125 C 56.109375 -18.660156 55.328125 -16.109375 53.765625 -14.296875 C 50.234375 -9.941406 46.390625 -6.367188 42.234375 -3.578125 C 38.078125 -0.785156 33.367188 0.609375 28.109375 0.609375 C 20.878906 0.609375 15.515625 -2.675781 12.015625 -9.25 C 8.523438 -15.820312 6.78125 -24.332031 6.78125 -34.78125 C 6.78125 -44.800781 8.070312 -56.222656 10.65625 -69.046875 C 13.25 -81.878906 17.070312 -92.894531 22.125 -102.09375 C 27.1875 -111.300781 33.210938 -115.90625 40.203125 -115.90625 C 44.148438 -115.90625 47.253906 -114.078125 49.515625 -110.421875 C 51.773438 -106.765625 52.90625 -101.523438 52.90625 -94.703125 C 52.90625 -84.921875 50.191406 -73.578125 44.765625 -60.671875 C 39.335938 -47.765625 31.976562 -34.976562 22.6875 -22.3125 C 23.257812 -18.945312 24.203125 -16.546875 25.515625 -15.109375 C 26.835938 -13.671875 28.566406 -12.953125 30.703125 -12.953125 C 34.078125 -12.953125 37.035156 -13.914062 39.578125 -15.84375 C 42.128906 -17.78125 45.378906 -21.085938 49.328125 -25.765625 C 50.316406 -26.921875 51.425781 -27.5 52.65625 -27.5 Z M 37.484375 -103.703125 C 35.597656 -103.703125 33.460938 -100.289062 31.078125 -93.46875 C 28.691406 -86.644531 26.59375 -78.175781 24.78125 -68.0625 C 22.976562 -57.957031 21.992188 -48.257812 21.828125 -38.96875 C 27.660156 -48.582031 32.300781 -58.21875 35.75 -67.875 C 39.207031 -77.539062 40.9375 -86.359375 40.9375 -94.328125 C 40.9375 -100.578125 39.785156 -103.703125 37.484375 -103.703125 Z M 37.484375 -103.703125 "/></g></g></g><g fill="#9747ff" fill-opacity="1"><g transform="translate(160.16998, 164.250003)"><g><path d="M 60.921875 -27.5 C 61.984375 -27.5 62.820312 -27.003906 63.4375 -26.015625 C 64.0625 -25.035156 64.375 -23.679688 64.375 -21.953125 C 64.375 -18.660156 63.59375 -16.109375 62.03125 -14.296875 C 58.988281 -10.597656 54.691406 -7.1875 49.140625 -4.0625 C 43.585938 -0.945312 37.648438 0.609375 31.328125 0.609375 C 22.691406 0.609375 15.988281 -1.726562 11.21875 -6.40625 C 6.445312 -11.09375 4.0625 -17.507812 4.0625 -25.65625 C 4.0625 -31.320312 5.253906 -36.597656 7.640625 -41.484375 C 10.023438 -46.378906 13.332031 -50.265625 17.5625 -53.140625 C 21.800781 -56.023438 26.59375 -57.46875 31.9375 -57.46875 C 36.707031 -57.46875 40.53125 -56.046875 43.40625 -53.203125 C 46.28125 -50.367188 47.71875 -46.523438 47.71875 -41.671875 C 47.71875 -36.003906 45.679688 -31.132812 41.609375 -27.0625 C 37.546875 -23 30.664062 -19.773438 20.96875 -17.390625 C 23.019531 -13.609375 26.921875 -11.71875 32.671875 -11.71875 C 36.378906 -11.71875 40.59375 -13.007812 45.3125 -15.59375 C 50.039062 -18.1875 54.132812 -21.578125 57.59375 -25.765625 C 58.570312 -26.921875 59.679688 -27.5 60.921875 -27.5 Z M 29.84375 -45.375 C 26.800781 -45.375 24.226562 -43.609375 22.125 -40.078125 C 20.03125 -36.546875 18.984375 -32.269531 18.984375 -27.25 L 18.984375 -27 C 23.835938 -28.15625 27.660156 -29.882812 30.453125 -32.1875 C 33.253906 -34.488281 34.65625 -37.160156 34.65625 -40.203125 C 34.65625 -41.765625 34.222656 -43.015625 33.359375 -43.953125 C 32.492188 -44.898438 31.320312 -45.375 29.84375 -45.375 Z M 29.84375 -45.375 "/></g></g></g><g fill="#9747ff" fill-opacity="1"><g transform="translate(208.628737, 164.250003)"><g><path d="M 77.6875 -27.5 C 78.757812 -27.5 79.601562 -27.003906 80.21875 -26.015625 C 80.832031 -25.035156 81.140625 -23.679688 81.140625 -21.953125 C 81.140625 -18.660156 80.359375 -16.109375 78.796875 -14.296875 C 75.179688 -10.023438 71.210938 -6.472656 66.890625 -3.640625 C 62.578125 -0.804688 57.707031 0.609375 52.28125 0.609375 C 48.09375 0.609375 44.375 -0.164062 41.125 -1.71875 C 37.875 -3.28125 35.304688 -5.503906 33.421875 -8.390625 C 28.734375 -2.460938 23.179688 0.5 16.765625 0.5 C 12.242188 0.5 8.664062 -0.816406 6.03125 -3.453125 C 3.40625 -6.085938 2.09375 -9.582031 2.09375 -13.9375 C 2.09375 -18.039062 3.035156 -21.367188 4.921875 -23.921875 C 6.816406 -26.472656 9.492188 -27.75 12.953125 -27.75 C 15.910156 -27.75 17.390625 -26.640625 17.390625 -24.421875 C 17.390625 -23.835938 17.304688 -22.804688 17.140625 -21.328125 C 16.890625 -18.367188 16.765625 -16.6875 16.765625 -16.28125 C 16.765625 -13.8125 17.835938 -12.578125 19.984375 -12.578125 C 21.535156 -12.578125 23.03125 -13.5 24.46875 -15.34375 C 25.914062 -17.195312 27.109375 -19.726562 28.046875 -22.9375 C 28.992188 -26.144531 29.46875 -29.679688 29.46875 -33.546875 C 29.46875 -36.503906 29.097656 -38.988281 28.359375 -41 C 27.617188 -43.007812 26.71875 -44.015625 25.65625 -44.015625 C 24.75 -44.015625 24.085938 -43.789062 23.671875 -43.34375 C 23.265625 -42.894531 22.851562 -42.132812 22.4375 -41.0625 C 21.945312 -39.75 21.289062 -38.703125 20.46875 -37.921875 C 19.644531 -37.140625 18.207031 -36.75 16.15625 -36.75 C 14.34375 -36.75 12.898438 -37.382812 11.828125 -38.65625 C 10.765625 -39.925781 10.234375 -41.878906 10.234375 -44.515625 C 10.234375 -48.710938 11.503906 -52 14.046875 -54.375 C 16.597656 -56.757812 19.890625 -57.953125 23.921875 -57.953125 C 27.378906 -57.953125 30.503906 -57.109375 33.296875 -55.421875 C 36.085938 -53.742188 38.222656 -51.300781 39.703125 -48.09375 C 42.171875 -51.382812 44.945312 -53.847656 48.03125 -55.484375 C 51.113281 -57.128906 54.132812 -57.953125 57.09375 -57.953125 C 60.300781 -57.953125 62.742188 -57.210938 64.421875 -55.734375 C 66.109375 -54.253906 66.953125 -51.867188 66.953125 -48.578125 C 66.953125 -44.878906 66.253906 -41.984375 64.859375 -39.890625 C 63.460938 -37.796875 61.78125 -36.75 59.8125 -36.75 C 58 -36.75 56.765625 -37.117188 56.109375 -37.859375 C 55.453125 -38.597656 54.957031 -39.664062 54.625 -41.0625 C 54.457031 -42.050781 54.207031 -42.789062 53.875 -43.28125 C 53.550781 -43.769531 52.976562 -44.015625 52.15625 -44.015625 C 51.175781 -44.015625 50.128906 -43.085938 49.015625 -41.234375 C 47.910156 -39.390625 46.96875 -36.945312 46.1875 -33.90625 C 45.40625 -30.863281 45.015625 -27.703125 45.015625 -24.421875 C 45.015625 -20.554688 45.9375 -17.570312 47.78125 -15.46875 C 49.632812 -13.375 52.164062 -12.328125 55.375 -12.328125 C 58.570312 -12.328125 61.585938 -13.414062 64.421875 -15.59375 C 67.265625 -17.769531 70.578125 -21.160156 74.359375 -25.765625 C 75.347656 -26.921875 76.457031 -27.5 77.6875 -27.5 Z M 77.6875 -27.5 "/></g></g></g><g fill="#9747ff" fill-opacity="1"><g transform="translate(273.856922, 164.250003)"><g><path d="M 22.078125 -65.609375 C 18.617188 -65.609375 16.023438 -66.40625 14.296875 -68 C 12.578125 -69.601562 11.71875 -71.847656 11.71875 -74.734375 C 11.71875 -77.609375 12.847656 -80.007812 15.109375 -81.9375 C 17.367188 -83.875 20.179688 -84.84375 23.546875 -84.84375 C 26.585938 -84.84375 29.050781 -84.101562 30.9375 -82.625 C 32.832031 -81.144531 33.78125 -79.046875 33.78125 -76.328125 C 33.78125 -73.035156 32.710938 -70.425781 30.578125 -68.5 C 28.441406 -66.570312 25.609375 -65.609375 22.078125 -65.609375 Z M 21.09375 0.609375 C 15.75 0.609375 11.863281 -1.28125 9.4375 -5.0625 C 7.007812 -8.84375 5.796875 -13.851562 5.796875 -20.09375 C 5.796875 -23.800781 6.265625 -28.550781 7.203125 -34.34375 C 8.148438 -40.132812 9.363281 -45.539062 10.84375 -50.5625 C 11.59375 -53.1875 12.582031 -54.992188 13.8125 -55.984375 C 15.039062 -56.972656 17.015625 -57.46875 19.734375 -57.46875 C 23.921875 -57.46875 26.015625 -56.066406 26.015625 -53.265625 C 26.015625 -51.210938 25.234375 -46.445312 23.671875 -38.96875 C 21.703125 -29.925781 20.71875 -23.800781 20.71875 -20.59375 C 20.71875 -18.125 21.046875 -16.234375 21.703125 -14.921875 C 22.359375 -13.609375 23.46875 -12.953125 25.03125 -12.953125 C 26.507812 -12.953125 28.359375 -13.976562 30.578125 -16.03125 C 32.796875 -18.082031 35.753906 -21.328125 39.453125 -25.765625 C 40.441406 -26.921875 41.554688 -27.5 42.796875 -27.5 C 43.859375 -27.5 44.695312 -27.003906 45.3125 -26.015625 C 45.925781 -25.035156 46.234375 -23.679688 46.234375 -21.953125 C 46.234375 -18.660156 45.457031 -16.109375 43.90625 -14.296875 C 35.757812 -4.359375 28.15625 0.609375 21.09375 0.609375 Z M 21.09375 0.609375 "/></g></g></g><g fill="#9747ff" fill-opacity="1"><g transform="translate(304.189898, 164.250003)"><g><path d="M 71.515625 -37.859375 C 72.585938 -37.859375 73.410156 -37.320312 73.984375 -36.25 C 74.554688 -35.1875 74.84375 -33.832031 74.84375 -32.1875 C 74.84375 -30.132812 74.554688 -28.550781 73.984375 -27.4375 C 73.410156 -26.320312 72.507812 -25.5625 71.28125 -25.15625 C 66.34375 -23.425781 60.914062 -22.441406 55 -22.203125 C 53.351562 -15.378906 50.25 -9.867188 45.6875 -5.671875 C 41.125 -1.484375 36.085938 0.609375 30.578125 0.609375 C 22.273438 0.609375 16.234375 -2.550781 12.453125 -8.875 C 8.671875 -15.207031 6.78125 -24.375 6.78125 -36.375 C 6.78125 -46.976562 8.09375 -58.503906 10.71875 -70.953125 C 13.351562 -83.410156 17.195312 -94.015625 22.25 -102.765625 C 27.3125 -111.523438 33.335938 -115.90625 40.328125 -115.90625 C 44.109375 -115.90625 47.148438 -114.28125 49.453125 -111.03125 C 51.753906 -107.789062 52.90625 -103.582031 52.90625 -98.40625 C 52.90625 -91.664062 51.628906 -84.960938 49.078125 -78.296875 C 46.523438 -71.640625 42.289062 -64.65625 36.375 -57.34375 C 41.882812 -56.925781 46.363281 -54.640625 49.8125 -50.484375 C 53.269531 -46.335938 55.328125 -41.222656 55.984375 -35.140625 C 59.847656 -35.390625 64.453125 -36.210938 69.796875 -37.609375 C 70.285156 -37.773438 70.859375 -37.859375 71.515625 -37.859375 Z M 37.484375 -103.703125 C 35.835938 -103.703125 34.046875 -101.253906 32.109375 -96.359375 C 30.179688 -91.472656 28.394531 -84.835938 26.75 -76.453125 C 25.113281 -68.066406 23.882812 -58.898438 23.0625 -48.953125 C 28.488281 -58.898438 32.820312 -67.675781 36.0625 -75.28125 C 39.3125 -82.882812 40.9375 -89.644531 40.9375 -95.5625 C 40.9375 -98.195312 40.628906 -100.210938 40.015625 -101.609375 C 39.398438 -103.003906 38.554688 -103.703125 37.484375 -103.703125 Z M 31.078125 -12.453125 C 33.617188 -12.453125 35.875 -13.519531 37.84375 -15.65625 C 39.820312 -17.789062 41.140625 -20.875 41.796875 -24.90625 C 39.253906 -26.632812 37.300781 -28.894531 35.9375 -31.6875 C 34.582031 -34.488281 33.90625 -37.445312 33.90625 -40.5625 C 33.90625 -41.71875 34.070312 -43.28125 34.40625 -45.25 L 34.03125 -45.25 C 30.664062 -45.25 27.851562 -43.582031 25.59375 -40.25 C 23.332031 -36.925781 22.203125 -32.46875 22.203125 -26.875 C 22.203125 -22.195312 23.082031 -18.625 24.84375 -16.15625 C 26.613281 -13.6875 28.691406 -12.453125 31.078125 -12.453125 Z M 31.078125 -12.453125 "/></g></g></g><g fill="#9747ff" fill-opacity="1"><g transform="translate(362.513016, 164.250003)"><g><path d="M 71.515625 -37.859375 C 72.585938 -37.859375 73.410156 -37.320312 73.984375 -36.25 C 74.554688 -35.1875 74.84375 -33.832031 74.84375 -32.1875 C 74.84375 -30.132812 74.554688 -28.550781 73.984375 -27.4375 C 73.410156 -26.320312 72.507812 -25.5625 71.28125 -25.15625 C 66.34375 -23.425781 60.914062 -22.441406 55 -22.203125 C 53.351562 -15.378906 50.25 -9.867188 45.6875 -5.671875 C 41.125 -1.484375 36.085938 0.609375 30.578125 0.609375 C 22.273438 0.609375 16.234375 -2.550781 12.453125 -8.875 C 8.671875 -15.207031 6.78125 -24.375 6.78125 -36.375 C 6.78125 -46.976562 8.09375 -58.503906 10.71875 -70.953125 C 13.351562 -83.410156 17.195312 -94.015625 22.25 -102.765625 C 27.3125 -111.523438 33.335938 -115.90625 40.328125 -115.90625 C 44.109375 -115.90625 47.148438 -114.28125 49.453125 -111.03125 C 51.753906 -107.789062 52.90625 -103.582031 52.90625 -98.40625 C 52.90625 -91.664062 51.628906 -84.960938 49.078125 -78.296875 C 46.523438 -71.640625 42.289062 -64.65625 36.375 -57.34375 C 41.882812 -56.925781 46.363281 -54.640625 49.8125 -50.484375 C 53.269531 -46.335938 55.328125 -41.222656 55.984375 -35.140625 C 59.847656 -35.390625 64.453125 -36.210938 69.796875 -37.609375 C 70.285156 -37.773438 70.859375 -37.859375 71.515625 -37.859375 Z M 37.484375 -103.703125 C 35.835938 -103.703125 34.046875 -101.253906 32.109375 -96.359375 C 30.179688 -91.472656 28.394531 -84.835938 26.75 -76.453125 C 25.113281 -68.066406 23.882812 -58.898438 23.0625 -48.953125 C 28.488281 -58.898438 32.820312 -67.675781 36.0625 -75.28125 C 39.3125 -82.882812 40.9375 -89.644531 40.9375 -95.5625 C 40.9375 -98.195312 40.628906 -100.210938 40.015625 -101.609375 C 39.398438 -103.003906 38.554688 -103.703125 37.484375 -103.703125 Z M 31.078125 -12.453125 C 33.617188 -12.453125 35.875 -13.519531 37.84375 -15.65625 C 39.820312 -17.789062 41.140625 -20.875 41.796875 -24.90625 C 39.253906 -26.632812 37.300781 -28.894531 35.9375 -31.6875 C 34.582031 -34.488281 33.90625 -37.445312 33.90625 -40.5625 C 33.90625 -41.71875 34.070312 -43.28125 34.40625 -45.25 L 34.03125 -45.25 C 30.664062 -45.25 27.851562 -43.582031 25.59375 -40.25 C 23.332031 -36.925781 22.203125 -32.46875 22.203125 -26.875 C 22.203125 -22.195312 23.082031 -18.625 24.84375 -16.15625 C 26.613281 -13.6875 28.691406 -12.453125 31.078125 -12.453125 Z M 31.078125 -12.453125 "/></g></g></g><g fill="#9747ff" fill-opacity="1"><g transform="translate(420.836133, 164.250003)"><g><path d="M 71.515625 -37.859375 C 72.585938 -37.859375 73.410156 -37.320312 73.984375 -36.25 C 74.554688 -35.1875 74.84375 -33.832031 74.84375 -32.1875 C 74.84375 -30.132812 74.554688 -28.550781 73.984375 -27.4375 C 73.410156 -26.320312 72.507812 -25.5625 71.28125 -25.15625 C 66.34375 -23.425781 60.914062 -22.441406 55 -22.203125 C 53.351562 -15.378906 50.25 -9.867188 45.6875 -5.671875 C 41.125 -1.484375 36.085938 0.609375 30.578125 0.609375 C 22.273438 0.609375 16.234375 -2.550781 12.453125 -8.875 C 8.671875 -15.207031 6.78125 -24.375 6.78125 -36.375 C 6.78125 -46.976562 8.09375 -58.503906 10.71875 -70.953125 C 13.351562 -83.410156 17.195312 -94.015625 22.25 -102.765625 C 27.3125 -111.523438 33.335938 -115.90625 40.328125 -115.90625 C 44.109375 -115.90625 47.148438 -114.28125 49.453125 -111.03125 C 51.753906 -107.789062 52.90625 -103.582031 52.90625 -98.40625 C 52.90625 -91.664062 51.628906 -84.960938 49.078125 -78.296875 C 46.523438 -71.640625 42.289062 -64.65625 36.375 -57.34375 C 41.882812 -56.925781 46.363281 -54.640625 49.8125 -50.484375 C 53.269531 -46.335938 55.328125 -41.222656 55.984375 -35.140625 C 59.847656 -35.390625 64.453125 -36.210938 69.796875 -37.609375 C 70.285156 -37.773438 70.859375 -37.859375 71.515625 -37.859375 Z M 37.484375 -103.703125 C 35.835938 -103.703125 34.046875 -101.253906 32.109375 -96.359375 C 30.179688 -91.472656 28.394531 -84.835938 26.75 -76.453125 C 25.113281 -68.066406 23.882812 -58.898438 23.0625 -48.953125 C 28.488281 -58.898438 32.820312 -67.675781 36.0625 -75.28125 C 39.3125 -82.882812 40.9375 -89.644531 40.9375 -95.5625 C 40.9375 -98.195312 40.628906 -100.210938 40.015625 -101.609375 C 39.398438 -103.003906 38.554688 -103.703125 37.484375 -103.703125 Z M 31.078125 -12.453125 C 33.617188 -12.453125 35.875 -13.519531 37.84375 -15.65625 C 39.820312 -17.789062 41.140625 -20.875 41.796875 -24.90625 C 39.253906 -26.632812 37.300781 -28.894531 35.9375 -31.6875 C 34.582031 -34.488281 33.90625 -37.445312 33.90625 -40.5625 C 33.90625 -41.71875 34.070312 -43.28125 34.40625 -45.25 L 34.03125 -45.25 C 30.664062 -45.25 27.851562 -43.582031 25.59375 -40.25 C 23.332031 -36.925781 22.203125 -32.46875 22.203125 -26.875 C 22.203125 -22.195312 23.082031 -18.625 24.84375 -16.15625 C 26.613281 -13.6875 28.691406 -12.453125 31.078125 -12.453125 Z M 31.078125 -12.453125 "/></g></g></g><g fill="#9747ff" fill-opacity="1"><g transform="translate(479.159251, 164.250003)"><g><path d="M 52.65625 -27.5 C 53.71875 -27.5 54.554688 -27.003906 55.171875 -26.015625 C 55.796875 -25.035156 56.109375 -23.679688 56.109375 -21.953125 C 56.109375 -18.660156 55.328125 -16.109375 53.765625 -14.296875 C 50.234375 -9.941406 46.390625 -6.367188 42.234375 -3.578125 C 38.078125 -0.785156 33.367188 0.609375 28.109375 0.609375 C 20.878906 0.609375 15.515625 -2.675781 12.015625 -9.25 C 8.523438 -15.820312 6.78125 -24.332031 6.78125 -34.78125 C 6.78125 -44.800781 8.070312 -56.222656 10.65625 -69.046875 C 13.25 -81.878906 17.070312 -92.894531 22.125 -102.09375 C 27.1875 -111.300781 33.210938 -115.90625 40.203125 -115.90625 C 44.148438 -115.90625 47.253906 -114.078125 49.515625 -110.421875 C 51.773438 -106.765625 52.90625 -101.523438 52.90625 -94.703125 C 52.90625 -84.921875 50.191406 -73.578125 44.765625 -60.671875 C 39.335938 -47.765625 31.976562 -34.976562 22.6875 -22.3125 C 23.257812 -18.945312 24.203125 -16.546875 25.515625 -15.109375 C 26.835938 -13.671875 28.566406 -12.953125 30.703125 -12.953125 C 34.078125 -12.953125 37.035156 -13.914062 39.578125 -15.84375 C 42.128906 -17.78125 45.378906 -21.085938 49.328125 -25.765625 C 50.316406 -26.921875 51.425781 -27.5 52.65625 -27.5 Z M 37.484375 -103.703125 C 35.597656 -103.703125 33.460938 -100.289062 31.078125 -93.46875 C 28.691406 -86.644531 26.59375 -78.175781 24.78125 -68.0625 C 22.976562 -57.957031 21.992188 -48.257812 21.828125 -38.96875 C 27.660156 -48.582031 32.300781 -58.21875 35.75 -67.875 C 39.207031 -77.539062 40.9375 -86.359375 40.9375 -94.328125 C 40.9375 -100.578125 39.785156 -103.703125 37.484375 -103.703125 Z M 37.484375 -103.703125 "/></g></g></g><g fill="#9747ff" fill-opacity="1"><g transform="translate(519.356576, 164.250003)"><g><path d="M 60.921875 -27.5 C 61.984375 -27.5 62.820312 -27.003906 63.4375 -26.015625 C 64.0625 -25.035156 64.375 -23.679688 64.375 -21.953125 C 64.375 -18.660156 63.59375 -16.109375 62.03125 -14.296875 C 58.988281 -10.597656 54.691406 -7.1875 49.140625 -4.0625 C 43.585938 -0.945312 37.648438 0.609375 31.328125 0.609375 C 22.691406 0.609375 15.988281 -1.726562 11.21875 -6.40625 C 6.445312 -11.09375 4.0625 -17.507812 4.0625 -25.65625 C 4.0625 -31.320312 5.253906 -36.597656 7.640625 -41.484375 C 10.023438 -46.378906 13.332031 -50.265625 17.5625 -53.140625 C 21.800781 -56.023438 26.59375 -57.46875 31.9375 -57.46875 C 36.707031 -57.46875 40.53125 -56.046875 43.40625 -53.203125 C 46.28125 -50.367188 47.71875 -46.523438 47.71875 -41.671875 C 47.71875 -36.003906 45.679688 -31.132812 41.609375 -27.0625 C 37.546875 -23 30.664062 -19.773438 20.96875 -17.390625 C 23.019531 -13.609375 26.921875 -11.71875 32.671875 -11.71875 C 36.378906 -11.71875 40.59375 -13.007812 45.3125 -15.59375 C 50.039062 -18.1875 54.132812 -21.578125 57.59375 -25.765625 C 58.570312 -26.921875 59.679688 -27.5 60.921875 -27.5 Z M 29.84375 -45.375 C 26.800781 -45.375 24.226562 -43.609375 22.125 -40.078125 C 20.03125 -36.546875 18.984375 -32.269531 18.984375 -27.25 L 18.984375 -27 C 23.835938 -28.15625 27.660156 -29.882812 30.453125 -32.1875 C 33.253906 -34.488281 34.65625 -37.160156 34.65625 -40.203125 C 34.65625 -41.765625 34.222656 -43.015625 33.359375 -43.953125 C 32.492188 -44.898438 31.320312 -45.375 29.84375 -45.375 Z M 29.84375 -45.375 "/></g></g></g></svg>